<svg id="Layer_1" data-name="Layer 1" xmlns="http://www.w3.org/2000/svg" xmlns:xlink="http://www.w3.org/1999/xlink" viewBox="0 0 826 307.44"><defs><style>.cls-1{fill:#231f20;}</style><symbol id="TAVOLARE_LOGO" data-name="TAVOLARE LOGO" viewBox="0 0 44.64 16.61"><path class="cls-1" d="M.6.84H0V.12H3.12V.84h-.6a.54.54,0,0,0-.6.6V8.52H1.2V1.44A.55.55,0,0,0,.6.84Z"/><path class="cls-1" d="M6.41.12l3.79,8.4H9.38l-.82-1.8a.71.71,0,0,0-.69-.46H4.94a.71.71,0,0,0-.69.46l-.82,1.8H2.62ZM6,2.81l-.91,2c-.18.41,0,.71.45.71H7.27c.45,0,.63-.3.45-.71l-.91-2C6.6,2.34,6.21,2.34,6,2.81Z"/><path class="cls-1" d="M8.08.12H8.9l2.56,5.75c.21.47.6.47.81,0L14.83.12h.83l-3.79,8.4Z"/><path class="cls-1" d="M15.64,4.34A4,4,0,0,1,19.88,0a4,4,0,0,1,4.25,4.34,4,4,0,0,1-4.25,4.3A3.94,3.94,0,0,1,15.64,4.34Zm4.24,3.58A3.23,3.23,0,0,0,23.3,4.33C23.25,2.1,22,.72,19.88.72a3.23,3.23,0,0,0-3.42,3.61C16.51,6.51,17.72,7.92,19.88,7.92Z"/><path class="cls-1" d="M25.33.12h.72V7.2a.55.55,0,0,0,.6.6H28v.72h-2.7Z"/><path class="cls-1" d="M32.38.12l3.79,8.4h-.82l-.82-1.8a.71.71,0,0,0-.69-.46H30.91a.71.71,0,0,0-.69.46l-.82,1.8h-.82ZM32,2.81l-.91,2c-.18.41,0,.71.45.71h1.73c.45,0,.63-.3.45-.71l-.91-2C32.57,2.34,32.18,2.34,32,2.81Z"/><path class="cls-1" d="M37,.12h1c1.66,0,2.54.74,2.54,2.3a2,2,0,0,1-1.3,2c-.41.15-.54.38-.32.75L41,8.52h-.85l-2-3.18c-.2-.3-.43-.22-.43.13V8.52H37ZM38.3,3.91a1.42,1.42,0,0,0,1.44-1.5A1.36,1.36,0,0,0,38.3.86c-.38,0-.59.2-.59.59V3.32C37.71,3.71,37.92,4,38.3,3.91Z"/><path class="cls-1" d="M41.82.12h2.7V.84H43.14a.55.55,0,0,0-.6.6V3.37a.55.55,0,0,0,.6.6h.66v.72h-.66a.55.55,0,0,0-.6.6V7.2a.55.55,0,0,0,.6.6h1.5v.72H41.82Z"/><path class="cls-1" d="M10.61,9.52h.6v2.71a.45.45,0,0,0,.5.5h.5a.45.45,0,0,0,.5-.5V9.52h.6v7h-.6V13.83a.45.45,0,0,0-.5-.5h-.5a.45.45,0,0,0-.5.5v2.69h-.6Z"/><path class="cls-1" d="M14.31,13a3.32,3.32,0,0,1,3.54-3.62A3.32,3.32,0,0,1,21.39,13a3.29,3.29,0,0,1-3.54,3.58A3.28,3.28,0,0,1,14.31,13Zm3.54,3a2.69,2.69,0,0,0,2.85-3c0-1.86-1.06-3-2.85-3A2.68,2.68,0,0,0,15,13,2.72,2.72,0,0,0,17.85,16Z"/><path class="cls-1" d="M23.26,12.14l-.78,4.38h-.62l1.24-7,3.19,5.22a.37.37,0,0,0,.7,0l3.19-5.22,1.24,7H30.8L30,12.14c-.08-.46-.4-.52-.64-.12l-2.74,4.46L23.9,12C23.66,11.62,23.34,11.68,23.26,12.14Z"/><path class="cls-1" d="M32.24,9.52h2.25v.6H33.34a.45.45,0,0,0-.5.5v1.61a.45.45,0,0,0,.5.5h.55v.6h-.55a.45.45,0,0,0-.5.5v1.59a.45.45,0,0,0,.5.5h1.25v.6H32.24Z"/></symbol></defs><title>landing page logo</title><use width="44.64" height="16.62" transform="translate(0 0) scale(18.5)" xlink:href="#TAVOLARE_LOGO"/></svg>